<svg xmlns="http://www.w3.org/2000/svg" xmlns:xlink="http://www.w3.org/1999/xlink" width="500" zoomAndPan="magnify" viewBox="0 0 375 374.999991" height="500" preserveAspectRatio="xMidYMid meet" version="1.0"><defs><g/></defs><g fill="#00bf63" fill-opacity="1"><g transform="translate(168.113207, 302.529723)"><g/></g></g><g fill="#00bf63" fill-opacity="1"><g transform="translate(154.561675, 298.062399)"><g><path d="M -3.703125 4.171875 L -6.96875 11.015625 C -7.332031 11.773438 -7.789062 12.40625 -8.34375 12.90625 C -8.90625 13.40625 -9.523438 13.757812 -10.203125 13.96875 C -10.890625 14.1875 -11.628906 14.25 -12.421875 14.15625 C -13.222656 14.070312 -14.035156 13.832031 -14.859375 13.4375 C -15.679688 13.039062 -16.375 12.5625 -16.9375 12 C -17.507812 11.445312 -17.925781 10.832031 -18.1875 10.15625 C -18.457031 9.488281 -18.570312 8.785156 -18.53125 8.046875 C -18.5 7.304688 -18.300781 6.554688 -17.9375 5.796875 L -14.671875 -1.046875 C -14.171875 -2.097656 -13.503906 -2.894531 -12.671875 -3.4375 C -11.835938 -3.976562 -10.914062 -4.25 -9.90625 -4.25 L -10.671875 -9.734375 L -7.578125 -8.25 L -6.90625 -3.5625 C -6.113281 -3.1875 -5.425781 -2.726562 -4.84375 -2.1875 C -4.257812 -1.65625 -3.816406 -1.054688 -3.515625 -0.390625 C -3.222656 0.273438 -3.078125 0.988281 -3.078125 1.75 C -3.085938 2.519531 -3.296875 3.328125 -3.703125 4.171875 Z M -7.96875 -0.984375 C -8.757812 -1.359375 -9.5 -1.429688 -10.1875 -1.203125 C -10.882812 -0.972656 -11.421875 -0.46875 -11.796875 0.3125 L -15.0625 7.15625 C -15.4375 7.9375 -15.492188 8.671875 -15.234375 9.359375 C -14.972656 10.046875 -14.445312 10.578125 -13.65625 10.953125 C -12.863281 11.328125 -12.125 11.398438 -11.4375 11.171875 C -10.75 10.941406 -10.21875 10.4375 -9.84375 9.65625 L -6.578125 2.8125 C -6.203125 2.03125 -6.140625 1.296875 -6.390625 0.609375 C -6.648438 -0.078125 -7.175781 -0.609375 -7.96875 -0.984375 Z M -7.96875 -0.984375 "/></g></g></g><g fill="#00bf63" fill-opacity="1"><g transform="translate(141.657983, 291.971804)"><g><path d="M -9.125 10.75 L -11.828125 9.03125 L -7.125 1.65625 C -6.15625 0.132812 -6.375 -1.070312 -7.78125 -1.96875 C -9.207031 -2.882812 -10.40625 -2.582031 -11.375 -1.0625 L -16.078125 6.3125 L -18.75 4.609375 L -14.046875 -2.765625 C -13.109375 -4.234375 -11.957031 -5.097656 -10.59375 -5.359375 C -9.226562 -5.617188 -7.789062 -5.265625 -6.28125 -4.296875 C -4.757812 -3.328125 -3.835938 -2.171875 -3.515625 -0.828125 C -3.191406 0.515625 -3.492188 1.914062 -4.421875 3.375 Z M -9.125 10.75 "/></g></g></g><g fill="#00bf63" fill-opacity="1"><g transform="translate(129.595729, 284.349302)"><g><path d="M -3.484375 2.1875 C -3.929688 2.71875 -4.425781 3.113281 -4.96875 3.375 C -5.519531 3.644531 -6.097656 3.773438 -6.703125 3.765625 C -7.316406 3.765625 -7.953125 3.632812 -8.609375 3.375 C -9.265625 3.125 -9.910156 2.734375 -10.546875 2.203125 L -13.25 -0.03125 L -14 0.875 C -14.40625 1.375 -14.539062 1.925781 -14.40625 2.53125 C -14.28125 3.132812 -13.894531 3.707031 -13.25 4.25 C -12.707031 4.6875 -12.171875 4.957031 -11.640625 5.0625 C -11.117188 5.164062 -10.664062 5.09375 -10.28125 4.84375 L -7.890625 6.8125 C -8.828125 7.625 -9.914062 7.972656 -11.15625 7.859375 C -12.394531 7.742188 -13.625 7.1875 -14.84375 6.1875 C -15.53125 5.613281 -16.085938 5.007812 -16.515625 4.375 C -16.941406 3.75 -17.222656 3.117188 -17.359375 2.484375 C -17.503906 1.859375 -17.503906 1.238281 -17.359375 0.625 C -17.222656 0.0078125 -16.9375 -0.554688 -16.5 -1.078125 L -10.34375 -8.53125 L -8.03125 -6.625 L -9.78125 -4.5 L -9.625 -4.375 C -8.90625 -4.976562 -8.070312 -5.234375 -7.125 -5.140625 C -6.175781 -5.054688 -5.25 -4.644531 -4.34375 -3.90625 C -3.28125 -3.019531 -2.671875 -2.023438 -2.515625 -0.921875 C -2.359375 0.171875 -2.679688 1.207031 -3.484375 2.1875 Z M -6.765625 -2.703125 C -7.503906 -3.304688 -8.257812 -3.625 -9.03125 -3.65625 C -9.8125 -3.695312 -10.429688 -3.441406 -10.890625 -2.890625 L -11.921875 -1.640625 L -9.234375 0.578125 C -8.691406 1.023438 -8.148438 1.238281 -7.609375 1.21875 C -7.066406 1.207031 -6.59375 0.957031 -6.1875 0.46875 C -5.78125 -0.03125 -5.625 -0.554688 -5.71875 -1.109375 C -5.820312 -1.671875 -6.171875 -2.203125 -6.765625 -2.703125 Z M -6.765625 -2.703125 "/></g></g></g><g fill="#00bf63" fill-opacity="1"><g transform="translate(118.55587, 275.309268)"><g><path d="M -19.234375 6.625 L -9.0625 -3 C -8.6875 -3.363281 -8.492188 -3.75 -8.484375 -4.15625 C -8.484375 -4.570312 -8.648438 -4.957031 -8.984375 -5.3125 L -11.84375 -8.328125 L -9.75 -10.296875 L -6.734375 -7.109375 C -5.765625 -6.085938 -5.285156 -5.003906 -5.296875 -3.859375 C -5.316406 -2.722656 -5.84375 -1.664062 -6.875 -0.6875 L -14.96875 6.96875 L -11.90625 10.203125 L -13.984375 12.171875 Z M -19.234375 6.625 "/></g></g></g><g fill="#00bf63" fill-opacity="1"><g transform="translate(108.704043, 264.987293)"><g><path d="M -3.578125 0.015625 L -6.546875 -4 L -13.140625 0.859375 L -10.546875 4.359375 L -12.875 6.078125 L -17.28125 0.125 L -8.359375 -6.453125 L -10.75 -9.703125 L -8.421875 -11.421875 L -1.25 -1.703125 Z M -17.96875 5.53125 C -18.363281 5.820312 -18.78125 5.929688 -19.21875 5.859375 C -19.664062 5.785156 -20.050781 5.53125 -20.375 5.09375 L -20.765625 4.5625 C -21.085938 4.125 -21.222656 3.675781 -21.171875 3.21875 C -21.117188 2.769531 -20.894531 2.398438 -20.5 2.109375 C -20.09375 1.804688 -19.664062 1.703125 -19.21875 1.796875 C -18.769531 1.890625 -18.382812 2.15625 -18.0625 2.59375 L -17.6875 3.109375 C -17.363281 3.546875 -17.226562 3.984375 -17.28125 4.421875 C -17.332031 4.859375 -17.5625 5.226562 -17.96875 5.53125 Z M -17.96875 5.53125 "/></g></g></g><g fill="#00bf63" fill-opacity="1"><g transform="translate(100.188092, 253.538312)"><g><path d="M -12.734375 5.859375 L -14.625 2.5 L -18.375 4.609375 L -19.9375 1.84375 L -16.1875 -0.265625 L -18.78125 -4.890625 L -16.28125 -6.3125 L -13.6875 -1.6875 L -7.765625 -5.015625 C -7.390625 -5.222656 -7.148438 -5.503906 -7.046875 -5.859375 C -6.953125 -6.222656 -7.019531 -6.609375 -7.25 -7.015625 L -9 -10.125 L -6.5 -11.53125 L -4.640625 -8.234375 C -3.960938 -7.035156 -3.769531 -5.894531 -4.0625 -4.8125 C -4.351562 -3.738281 -5.066406 -2.882812 -6.203125 -2.25 L -12.125 1.078125 L -10.234375 4.4375 Z M -12.734375 5.859375 "/></g></g></g><g fill="#00bf63" fill-opacity="1"><g transform="translate(93.135743, 241.134098)"><g><path d="M 0.9375 -8.734375 L 2.203125 -5.640625 L -3.109375 -5.5 L -13.265625 4.484375 L -14.59375 1.265625 L -8.75 -4.09375 C -8.5 -4.3125 -8.238281 -4.519531 -7.96875 -4.71875 C -7.695312 -4.914062 -7.429688 -5.085938 -7.171875 -5.234375 C -6.898438 -5.390625 -6.617188 -5.546875 -6.328125 -5.703125 L -6.40625 -5.890625 C -6.695312 -5.796875 -7.007812 -5.710938 -7.34375 -5.640625 C -7.625 -5.546875 -7.925781 -5.46875 -8.25 -5.40625 C -8.582031 -5.34375 -8.914062 -5.304688 -9.25 -5.296875 L -17.109375 -4.859375 L -18.375 -7.953125 Z M 0.9375 -8.734375 "/></g></g></g><g fill="#00bf63" fill-opacity="1"><g transform="translate(87.652841, 227.960684)"><g/></g></g><g fill="#00bf63" fill-opacity="1"><g transform="translate(83.821622, 214.215757)"><g/></g></g><g fill="#00bf63" fill-opacity="1"><g transform="translate(81.699591, 200.105552)"><g><path d="M -2.34375 -5.109375 C -3.101562 -5.085938 -3.710938 -5.296875 -4.171875 -5.734375 C -4.628906 -6.171875 -4.867188 -6.765625 -4.890625 -7.515625 C -4.910156 -8.273438 -4.703125 -8.878906 -4.265625 -9.328125 C -3.828125 -9.773438 -3.226562 -10.007812 -2.46875 -10.03125 C -1.726562 -10.039062 -1.125 -9.832031 -0.65625 -9.40625 C -0.1875 -8.976562 0.0546875 -8.382812 0.078125 -7.625 C 0.0976562 -6.875 -0.113281 -6.269531 -0.5625 -5.8125 C -1.007812 -5.351562 -1.601562 -5.117188 -2.34375 -5.109375 Z M -2.34375 -5.109375 "/></g></g></g><g fill="#00bf63" fill-opacity="1"><g transform="translate(81.318569, 185.841771)"><g/></g></g><g fill="#00bf63" fill-opacity="1"><g transform="translate(82.684278, 171.638406)"><g/></g></g><g fill="#00bf63" fill-opacity="1"><g transform="translate(85.77623, 157.708562)"><g/></g></g><g fill="#00bf63" fill-opacity="1"><g transform="translate(90.548034, 144.261226)"><g/></g></g><g fill="#00bf63" fill-opacity="1"><g transform="translate(96.928096, 131.498158)"><g><path d="M -11.078125 -16.75 C -10.578125 -17.5 -10.019531 -18.097656 -9.40625 -18.546875 C -8.800781 -19.003906 -8.160156 -19.320312 -7.484375 -19.5 C -6.804688 -19.675781 -6.101562 -19.703125 -5.375 -19.578125 C -4.65625 -19.460938 -3.953125 -19.195312 -3.265625 -18.78125 L -5.03125 -16.140625 C -5.707031 -16.554688 -6.375 -16.671875 -7.03125 -16.484375 C -7.6875 -16.304688 -8.25 -15.867188 -8.71875 -15.171875 C -9.207031 -14.429688 -9.390625 -13.707031 -9.265625 -13 C -9.148438 -12.300781 -8.734375 -11.710938 -8.015625 -11.234375 L -1.734375 -7.03125 C -1.015625 -6.550781 -0.316406 -6.378906 0.359375 -6.515625 C 1.046875 -6.660156 1.644531 -7.113281 2.15625 -7.875 C 2.625 -8.570312 2.804688 -9.265625 2.703125 -9.953125 C 2.609375 -10.648438 2.25 -11.226562 1.625 -11.6875 L 3.390625 -14.328125 C 4.710938 -13.328125 5.476562 -12.109375 5.6875 -10.671875 C 5.90625 -9.242188 5.515625 -7.785156 4.515625 -6.296875 C 4.003906 -5.535156 3.429688 -4.914062 2.796875 -4.4375 C 2.171875 -3.96875 1.507812 -3.648438 0.8125 -3.484375 C 0.113281 -3.316406 -0.601562 -3.3125 -1.34375 -3.46875 C -2.082031 -3.625 -2.800781 -3.9375 -3.5 -4.40625 L -9.78125 -8.609375 C -10.476562 -9.078125 -11.039062 -9.625 -11.46875 -10.25 C -11.894531 -10.875 -12.164062 -11.539062 -12.28125 -12.25 C -12.394531 -12.957031 -12.347656 -13.691406 -12.140625 -14.453125 C -11.941406 -15.222656 -11.585938 -15.988281 -11.078125 -16.75 Z M -11.078125 -16.75 "/></g></g></g><g fill="#00bf63" fill-opacity="1"><g transform="translate(104.820693, 119.610874)"><g><path d="M -0.90625 -7.015625 C -0.257812 -6.460938 0.410156 -6.222656 1.109375 -6.296875 C 1.816406 -6.367188 2.46875 -6.75 3.0625 -7.4375 C 3.644531 -8.113281 3.921875 -8.804688 3.890625 -9.515625 C 3.859375 -10.222656 3.519531 -10.851562 2.875 -11.40625 L 0.296875 -13.640625 C -0.347656 -14.203125 -1.023438 -14.445312 -1.734375 -14.375 C -2.453125 -14.300781 -3.101562 -13.925781 -3.6875 -13.25 C -4.257812 -12.582031 -4.53125 -11.890625 -4.5 -11.171875 C -4.46875 -10.453125 -4.128906 -9.8125 -3.484375 -9.25 Z M -5.5625 -6.859375 C -6.195312 -7.410156 -6.675781 -8.015625 -7 -8.671875 C -7.320312 -9.335938 -7.492188 -10.023438 -7.515625 -10.734375 C -7.535156 -11.453125 -7.394531 -12.179688 -7.09375 -12.921875 C -6.800781 -13.660156 -6.359375 -14.375 -5.765625 -15.0625 C -5.171875 -15.75 -4.53125 -16.285156 -3.84375 -16.671875 C -3.164062 -17.066406 -2.46875 -17.3125 -1.75 -17.40625 C -1.03125 -17.5 -0.320312 -17.429688 0.375 -17.203125 C 1.070312 -16.984375 1.738281 -16.597656 2.375 -16.046875 L 4.953125 -13.8125 C 5.585938 -13.269531 6.066406 -12.664062 6.390625 -12 C 6.722656 -11.332031 6.898438 -10.640625 6.921875 -9.921875 C 6.941406 -9.210938 6.800781 -8.488281 6.5 -7.75 C 6.207031 -7.007812 5.765625 -6.296875 5.171875 -5.609375 C 4.578125 -4.921875 3.929688 -4.378906 3.234375 -3.984375 C 2.546875 -3.597656 1.84375 -3.359375 1.125 -3.265625 C 0.414062 -3.179688 -0.285156 -3.25 -0.984375 -3.46875 C -1.679688 -3.695312 -2.347656 -4.082031 -2.984375 -4.625 Z M -5.5625 -6.859375 "/></g></g></g><g fill="#00bf63" fill-opacity="1"><g transform="translate(114.107411, 108.777687)"><g><path d="M -8.453125 -11.203125 L -6.65625 -12.8125 L -5.296875 -11.3125 L -5.125 -11.46875 C -5.5625 -12.019531 -5.757812 -12.582031 -5.71875 -13.15625 C -5.6875 -13.738281 -5.410156 -14.265625 -4.890625 -14.734375 C -4.410156 -15.179688 -3.867188 -15.398438 -3.265625 -15.390625 C -2.660156 -15.390625 -2.054688 -15.191406 -1.453125 -14.796875 L -1.390625 -14.859375 C -1.816406 -15.410156 -2.007812 -15.976562 -1.96875 -16.5625 C -1.9375 -17.144531 -1.664062 -17.664062 -1.15625 -18.125 C -0.53125 -18.6875 0.171875 -18.894531 0.953125 -18.75 C 1.734375 -18.601562 2.492188 -18.125 3.234375 -17.3125 L 10.390625 -9.40625 L 8.40625 -7.609375 L 1.421875 -15.328125 C 0.710938 -16.109375 0.0625 -16.226562 -0.53125 -15.6875 C -1.101562 -15.164062 -1.023438 -14.503906 -0.296875 -13.703125 L 6.65625 -6.015625 L 4.671875 -4.21875 L -2.3125 -11.9375 C -2.882812 -12.570312 -3.4375 -12.765625 -3.96875 -12.515625 C -4.113281 -12.421875 -4.21875 -12.347656 -4.28125 -12.296875 C -4.34375 -12.242188 -4.425781 -12.148438 -4.53125 -12.015625 C -4.8125 -11.535156 -4.65625 -10.96875 -4.0625 -10.3125 L 2.890625 -2.625 L 0.921875 -0.84375 Z M -8.453125 -11.203125 "/></g></g></g><g fill="#00bf63" fill-opacity="1"><g transform="translate(124.648903, 99.161158)"><g><path d="M -4 -14.25 L -2.609375 -12.28125 L -2.421875 -12.421875 C -2.765625 -13.191406 -2.804688 -13.957031 -2.546875 -14.71875 C -2.285156 -15.476562 -1.738281 -16.148438 -0.90625 -16.734375 C -0.300781 -17.160156 0.3125 -17.4375 0.9375 -17.5625 C 1.5625 -17.695312 2.179688 -17.691406 2.796875 -17.546875 C 3.410156 -17.398438 4.003906 -17.117188 4.578125 -16.703125 C 5.148438 -16.285156 5.675781 -15.734375 6.15625 -15.046875 L 8.171875 -12.1875 C 8.648438 -11.5 8.992188 -10.804688 9.203125 -10.109375 C 9.410156 -9.421875 9.476562 -8.757812 9.40625 -8.125 C 9.34375 -7.5 9.144531 -6.910156 8.8125 -6.359375 C 8.476562 -5.816406 8.007812 -5.332031 7.40625 -4.90625 C 6.570312 -4.320312 5.753906 -4.035156 4.953125 -4.046875 C 4.148438 -4.054688 3.4375 -4.363281 2.8125 -4.96875 L 2.625 -4.828125 C 2.65625 -4.785156 2.722656 -4.703125 2.828125 -4.578125 C 2.941406 -4.453125 3.066406 -4.300781 3.203125 -4.125 C 3.347656 -3.945312 3.5 -3.75 3.65625 -3.53125 C 3.820312 -3.320312 3.976562 -3.113281 4.125 -2.90625 L 6.53125 0.515625 L 3.921875 2.359375 L -6.515625 -12.484375 Z M 1.09375 -7.21875 C 1.570312 -6.539062 2.148438 -6.132812 2.828125 -6 C 3.515625 -5.863281 4.203125 -6.035156 4.890625 -6.515625 C 5.597656 -7.015625 6.003906 -7.613281 6.109375 -8.3125 C 6.210938 -9.019531 6.019531 -9.726562 5.53125 -10.4375 L 3.609375 -13.15625 C 3.109375 -13.863281 2.515625 -14.28125 1.828125 -14.40625 C 1.140625 -14.53125 0.441406 -14.34375 -0.265625 -13.84375 C -0.929688 -13.375 -1.316406 -12.789062 -1.421875 -12.09375 C -1.535156 -11.394531 -1.351562 -10.703125 -0.875 -10.015625 Z M 1.09375 -7.21875 "/></g></g></g><g fill="#00bf63" fill-opacity="1"><g transform="translate(136.287016, 90.905549)"><g><path d="M -4.890625 -13.21875 L -2.078125 -14.734375 L 2.03125 -7.03125 C 2.882812 -5.425781 4.054688 -5.019531 5.546875 -5.8125 C 7.023438 -6.601562 7.335938 -7.800781 6.484375 -9.40625 L 2.375 -17.109375 L 5.1875 -18.609375 L 9.296875 -10.90625 C 10.117188 -9.351562 10.3125 -7.921875 9.875 -6.609375 C 9.4375 -5.296875 8.429688 -4.21875 6.859375 -3.375 C 5.253906 -2.519531 3.78125 -2.28125 2.4375 -2.65625 C 1.101562 -3.03125 0.03125 -3.984375 -0.78125 -5.515625 Z M -4.890625 -13.21875 "/></g></g></g><g fill="#00bf63" fill-opacity="1"><g transform="translate(148.847152, 84.134742)"><g><path d="M -3.953125 -13.4375 L -0.34375 -14.828125 L -1.90625 -18.859375 L 1.046875 -20 L 2.609375 -15.96875 L 7.5625 -17.875 L 8.59375 -15.203125 L 3.640625 -13.296875 L 6.078125 -6.96875 C 6.234375 -6.550781 6.484375 -6.269531 6.828125 -6.125 C 7.171875 -5.976562 7.5625 -5.992188 8 -6.171875 L 11.3125 -7.4375 L 12.34375 -4.75 L 8.828125 -3.390625 C 7.535156 -2.898438 6.378906 -2.875 5.359375 -3.3125 C 4.335938 -3.757812 3.59375 -4.597656 3.125 -5.828125 L 0.6875 -12.15625 L -2.921875 -10.765625 Z M -3.953125 -13.4375 "/></g></g></g><g fill="#00bf63" fill-opacity="1"><g transform="translate(162.140865, 78.950318)"><g><path d="M 7.453125 -1.59375 C 6.566406 -1.375 5.722656 -1.300781 4.921875 -1.375 C 4.128906 -1.445312 3.421875 -1.644531 2.796875 -1.96875 C 2.171875 -2.300781 1.632812 -2.757812 1.1875 -3.34375 C 0.75 -3.9375 0.429688 -4.640625 0.234375 -5.453125 L -0.625 -8.875 C -0.820312 -9.675781 -0.863281 -10.4375 -0.75 -11.15625 C -0.644531 -11.882812 -0.394531 -12.539062 0 -13.125 C 0.394531 -13.71875 0.925781 -14.226562 1.59375 -14.65625 C 2.269531 -15.09375 3.050781 -15.421875 3.9375 -15.640625 C 4.820312 -15.867188 5.65625 -15.941406 6.4375 -15.859375 C 7.226562 -15.785156 7.9375 -15.582031 8.5625 -15.25 C 9.1875 -14.925781 9.71875 -14.46875 10.15625 -13.875 C 10.601562 -13.289062 10.925781 -12.59375 11.125 -11.78125 L 11.75 -9.328125 L 3.0625 -7.15625 L 3.28125 -6.265625 C 3.507812 -5.367188 3.9375 -4.726562 4.5625 -4.34375 C 5.1875 -3.957031 5.941406 -3.875 6.828125 -4.09375 C 7.492188 -4.257812 8.035156 -4.503906 8.453125 -4.828125 C 8.878906 -5.148438 9.140625 -5.535156 9.234375 -5.984375 L 12.265625 -6.734375 C 12.265625 -6.140625 12.144531 -5.566406 11.90625 -5.015625 C 11.675781 -4.472656 11.351562 -3.976562 10.9375 -3.53125 C 10.519531 -3.082031 10.015625 -2.691406 9.421875 -2.359375 C 8.828125 -2.035156 8.171875 -1.78125 7.453125 -1.59375 Z M 8.203125 -10.640625 L 8.09375 -11.03125 C 7.875 -11.9375 7.453125 -12.578125 6.828125 -12.953125 C 6.210938 -13.335938 5.453125 -13.414062 4.546875 -13.1875 C 3.660156 -12.96875 3.03125 -12.539062 2.65625 -11.90625 C 2.289062 -11.28125 2.21875 -10.523438 2.4375 -9.640625 L 2.546875 -9.21875 Z M 8.203125 -10.640625 "/></g></g></g><g fill="#00bf63" fill-opacity="1"><g transform="translate(175.968671, 75.43005)"><g><path d="M 0.6875 -14.15625 L 3.65625 -14.515625 L 3.953125 -12.109375 L 4.1875 -12.140625 C 4.25 -13.015625 4.585938 -13.722656 5.203125 -14.265625 C 5.816406 -14.804688 6.644531 -15.140625 7.6875 -15.265625 C 9.175781 -15.453125 10.398438 -15.132812 11.359375 -14.3125 C 12.316406 -13.5 12.894531 -12.28125 13.09375 -10.65625 L 13.21875 -9.640625 L 9.921875 -9.234375 L 9.828125 -9.96875 C 9.722656 -10.851562 9.394531 -11.507812 8.84375 -11.9375 C 8.289062 -12.375 7.585938 -12.539062 6.734375 -12.4375 C 5.929688 -12.34375 5.328125 -12.015625 4.921875 -11.453125 C 4.523438 -10.890625 4.378906 -10.175781 4.484375 -9.3125 L 5.546875 -0.6875 L 2.390625 -0.296875 Z M 0.6875 -14.15625 "/></g></g></g><g fill="#00bf63" fill-opacity="1"><g transform="translate(190.252038, 73.626766)"><g/></g></g><g fill="#00bf63" fill-opacity="1"><g transform="translate(204.391895, 73.567521)"><g/></g></g><g fill="#00bf63" fill-opacity="1"><g transform="translate(218.560849, 75.25319)"><g/></g></g><g fill="#00bf63" fill-opacity="1"><g transform="translate(232.417427, 78.658501)"><g/></g></g><g fill="#00bf63" fill-opacity="1"><g transform="translate(245.753723, 83.73235)"><g><path d="M 5.59375 0.453125 C 5.957031 -0.222656 6.441406 -0.648438 7.046875 -0.828125 C 7.648438 -1.003906 8.285156 -0.914062 8.953125 -0.5625 C 9.617188 -0.207031 10.039062 0.265625 10.21875 0.859375 C 10.394531 1.460938 10.300781 2.101562 9.9375 2.78125 C 9.59375 3.425781 9.117188 3.847656 8.515625 4.046875 C 7.910156 4.242188 7.273438 4.164062 6.609375 3.8125 C 5.941406 3.457031 5.519531 2.96875 5.34375 2.34375 C 5.164062 1.726562 5.25 1.097656 5.59375 0.453125 Z M 5.59375 0.453125 "/></g></g></g><g fill="#00bf63" fill-opacity="1"><g transform="translate(258.369666, 90.39861)"><g/></g></g><g fill="#00bf63" fill-opacity="1"><g transform="translate(270.075956, 98.557283)"><g/></g></g><g fill="#00bf63" fill-opacity="1"><g transform="translate(280.696942, 108.085938)"><g/></g></g><g fill="#00bf63" fill-opacity="1"><g transform="translate(290.073301, 118.841625)"><g/></g></g><g fill="#00bf63" fill-opacity="1"><g transform="translate(298.064353, 130.662964)"><g/></g></g><g fill="#00bf63" fill-opacity="1"><g transform="translate(304.550163, 143.372593)"><g><path d="M 0.734375 2.0625 L 17.9375 -4.125 L 21.75 6.453125 L 19.125 7.40625 L 16.390625 -0.1875 L 11.96875 1.390625 L 14.40625 8.15625 L 11.78125 9.109375 L 9.34375 2.34375 L 4.4375 4.09375 L 7.171875 11.6875 L 4.546875 12.640625 Z M 0.734375 2.0625 "/></g></g></g><g fill="#00bf63" fill-opacity="1"><g transform="translate(309.43348, 156.779839)"><g><path d="M 8.328125 4.078125 L 13.875 -1.96875 L 14.671875 1.546875 L 11.75 4.640625 C 11.570312 4.828125 11.382812 4.976562 11.1875 5.09375 C 11.09375 5.164062 11.007812 5.222656 10.9375 5.265625 L 10.96875 5.4375 C 11.050781 5.4375 11.148438 5.441406 11.265625 5.453125 C 11.347656 5.460938 11.445312 5.484375 11.5625 5.515625 C 11.6875 5.546875 11.828125 5.59375 11.984375 5.65625 L 15.953125 7.171875 L 16.75 10.703125 L 9.140625 7.625 L 3.1875 14.0625 L 2.390625 10.53125 L 5.640625 7.09375 C 5.890625 6.863281 6.082031 6.707031 6.21875 6.625 C 6.289062 6.550781 6.378906 6.484375 6.484375 6.421875 L 6.453125 6.28125 C 6.335938 6.257812 6.226562 6.238281 6.125 6.21875 C 6.03125 6.195312 5.921875 6.171875 5.796875 6.140625 C 5.679688 6.117188 5.5625 6.078125 5.4375 6.015625 L 0.96875 4.3125 L 0.171875 0.796875 Z M 8.328125 4.078125 "/></g></g></g><g fill="#00bf63" fill-opacity="1"><g transform="translate(312.641018, 170.683525)"><g><path d="M 14.390625 3.5 L 11.96875 3.734375 L 12 3.96875 C 12.851562 4.050781 13.546875 4.394531 14.078125 5 C 14.609375 5.601562 14.925781 6.410156 15.03125 7.421875 C 15.101562 8.148438 15.039062 8.816406 14.84375 9.421875 C 14.65625 10.035156 14.34375 10.570312 13.90625 11.03125 C 13.476562 11.5 12.941406 11.878906 12.296875 12.171875 C 11.660156 12.472656 10.921875 12.664062 10.078125 12.75 L 6.609375 13.09375 C 5.773438 13.175781 5.003906 13.140625 4.296875 12.984375 C 3.585938 12.828125 2.972656 12.5625 2.453125 12.1875 C 1.941406 11.820312 1.53125 11.359375 1.21875 10.796875 C 0.90625 10.242188 0.710938 9.601562 0.640625 8.875 C 0.535156 7.863281 0.6875 7.007812 1.09375 6.3125 C 1.507812 5.613281 2.125 5.132812 2.9375 4.875 L 2.90625 4.640625 C 2.851562 4.648438 2.75 4.671875 2.59375 4.703125 C 2.4375 4.742188 2.242188 4.78125 2.015625 4.8125 C 1.796875 4.851562 1.550781 4.890625 1.28125 4.921875 C 1.007812 4.960938 0.75 4.992188 0.5 5.015625 L -3.671875 5.4375 L -3.984375 2.265625 L 14.09375 0.453125 Z M 5.75 4.484375 C 4.925781 4.566406 4.285156 4.875 3.828125 5.40625 C 3.378906 5.945312 3.195312 6.632812 3.28125 7.46875 C 3.363281 8.320312 3.6875 8.96875 4.25 9.40625 C 4.8125 9.84375 5.519531 10.019531 6.375 9.9375 L 9.6875 9.59375 C 10.550781 9.507812 11.207031 9.195312 11.65625 8.65625 C 12.101562 8.125 12.285156 7.429688 12.203125 6.578125 C 12.117188 5.765625 11.796875 5.132812 11.234375 4.6875 C 10.679688 4.238281 9.984375 4.054688 9.140625 4.140625 Z M 5.75 4.484375 "/></g></g></g><g fill="#00bf63" fill-opacity="1"><g transform="translate(314.124649, 184.87506)"><g><path d="M -0.421875 7.625 C -0.398438 6.707031 -0.253906 5.875 0.015625 5.125 C 0.296875 4.375 0.679688 3.738281 1.171875 3.21875 C 1.660156 2.707031 2.242188 2.316406 2.921875 2.046875 C 3.609375 1.773438 4.367188 1.648438 5.203125 1.671875 L 8.734375 1.75 C 9.554688 1.757812 10.300781 1.914062 10.96875 2.21875 C 11.644531 2.519531 12.210938 2.9375 12.671875 3.46875 C 13.128906 4.007812 13.476562 4.660156 13.71875 5.421875 C 13.957031 6.191406 14.066406 7.035156 14.046875 7.953125 C 14.023438 8.859375 13.875 9.675781 13.59375 10.40625 C 13.320312 11.144531 12.941406 11.769531 12.453125 12.28125 C 11.972656 12.800781 11.390625 13.195312 10.703125 13.46875 C 10.015625 13.738281 9.253906 13.867188 8.421875 13.859375 L 5.890625 13.796875 L 6.09375 4.84375 L 5.171875 4.828125 C 4.242188 4.804688 3.507812 5.046875 2.96875 5.546875 C 2.4375 6.046875 2.160156 6.753906 2.140625 7.671875 C 2.128906 8.359375 2.222656 8.945312 2.421875 9.4375 C 2.617188 9.925781 2.921875 10.273438 3.328125 10.484375 L 3.25 13.609375 C 2.675781 13.453125 2.15625 13.1875 1.6875 12.8125 C 1.21875 12.445312 0.828125 12 0.515625 11.46875 C 0.203125 10.945312 -0.0351562 10.359375 -0.203125 9.703125 C -0.367188 9.054688 -0.441406 8.363281 -0.421875 7.625 Z M 8.09375 10.71875 L 8.5 10.734375 C 9.425781 10.753906 10.15625 10.515625 10.6875 10.015625 C 11.21875 9.523438 11.492188 8.816406 11.515625 7.890625 C 11.535156 6.972656 11.289062 6.25 10.78125 5.71875 C 10.269531 5.195312 9.5625 4.925781 8.65625 4.90625 L 8.21875 4.890625 Z M 8.09375 10.71875 "/></g></g></g><g fill="#00bf63" fill-opacity="1"><g transform="translate(313.862085, 199.141505)"><g><path d="M 13.484375 4.390625 L 13.046875 7.359375 L 10.640625 7.015625 L 10.609375 7.25 C 11.421875 7.539062 12.007812 8.054688 12.375 8.796875 C 12.738281 9.535156 12.84375 10.425781 12.6875 11.46875 C 12.46875 12.945312 11.835938 14.035156 10.796875 14.734375 C 9.753906 15.441406 8.425781 15.675781 6.8125 15.4375 L 5.8125 15.296875 L 6.28125 12.015625 L 7 12.109375 C 7.882812 12.242188 8.609375 12.101562 9.171875 11.6875 C 9.742188 11.28125 10.09375 10.644531 10.21875 9.78125 C 10.332031 8.976562 10.171875 8.3125 9.734375 7.78125 C 9.296875 7.25 8.644531 6.914062 7.78125 6.78125 L -0.8125 5.53125 L -0.34375 2.375 Z M 13.484375 4.390625 "/></g></g></g><g fill="#00bf63" fill-opacity="1"><g transform="translate(311.857288, 213.268874)"><g><path d="M 2.21875 2.796875 L 0.90625 7.625 L 8.828125 9.796875 L 9.96875 5.59375 L 12.734375 6.34375 L 10.78125 13.484375 L 0.09375 10.5625 L -0.96875 14.453125 L -3.75 13.6875 L -0.5625 2.03125 Z M 15.484375 10.671875 C 15.953125 10.804688 16.289062 11.070312 16.5 11.46875 C 16.71875 11.875 16.757812 12.335938 16.625 12.859375 L 16.4375 13.484375 C 16.300781 14.003906 16.035156 14.382812 15.640625 14.625 C 15.253906 14.863281 14.828125 14.914062 14.359375 14.78125 C 13.859375 14.65625 13.503906 14.382812 13.296875 13.96875 C 13.097656 13.5625 13.070312 13.097656 13.21875 12.578125 L 13.390625 11.96875 C 13.523438 11.445312 13.78125 11.066406 14.15625 10.828125 C 14.539062 10.597656 14.984375 10.546875 15.484375 10.671875 Z M 15.484375 10.671875 "/></g></g></g><g fill="#00bf63" fill-opacity="1"><g transform="translate(308.140371, 227.045115)"><g><path d="M -3.140625 6.953125 C -2.785156 6.109375 -2.34375 5.382812 -1.8125 4.78125 C -1.289062 4.1875 -0.707031 3.734375 -0.0625 3.421875 C 0.570312 3.117188 1.253906 2.960938 1.984375 2.953125 C 2.722656 2.953125 3.476562 3.109375 4.25 3.421875 L 7.515625 4.765625 C 8.273438 5.078125 8.910156 5.492188 9.421875 6.015625 C 9.941406 6.535156 10.320312 7.128906 10.5625 7.796875 C 10.800781 8.472656 10.894531 9.207031 10.84375 10 C 10.800781 10.789062 10.601562 11.609375 10.25 12.453125 C 9.90625 13.296875 9.46875 14.007812 8.9375 14.59375 C 8.414062 15.1875 7.832031 15.632812 7.1875 15.9375 C 6.550781 16.25 5.867188 16.40625 5.140625 16.40625 C 4.410156 16.414062 3.660156 16.265625 2.890625 15.953125 L 0.546875 14.984375 L 3.9375 6.703125 L 3.09375 6.359375 C 2.226562 6.003906 1.457031 5.960938 0.78125 6.234375 C 0.101562 6.515625 -0.410156 7.078125 -0.765625 7.921875 C -1.023438 8.554688 -1.144531 9.140625 -1.125 9.671875 C -1.113281 10.203125 -0.957031 10.640625 -0.65625 10.984375 L -1.84375 13.875 C -2.332031 13.507812 -2.726562 13.070312 -3.03125 12.5625 C -3.332031 12.050781 -3.535156 11.492188 -3.640625 10.890625 C -3.742188 10.296875 -3.753906 9.660156 -3.671875 8.984375 C -3.597656 8.316406 -3.421875 7.640625 -3.140625 6.953125 Z M 3.703125 12.90625 L 4.078125 13.0625 C 4.929688 13.414062 5.691406 13.457031 6.359375 13.1875 C 7.035156 12.925781 7.550781 12.363281 7.90625 11.5 C 8.257812 10.65625 8.289062 9.894531 8 9.21875 C 7.707031 8.539062 7.144531 8.023438 6.3125 7.671875 L 5.90625 7.515625 Z M 3.703125 12.90625 "/></g></g></g><g fill="#00bf63" fill-opacity="1"><g transform="translate(302.767057, 240.263605)"><g><path d="M -0.890625 1.59375 L 11.28125 8.453125 L 9.796875 11.078125 L 7.6875 9.890625 L 7.578125 10.09375 C 8.234375 10.644531 8.609375 11.3125 8.703125 12.09375 C 8.796875 12.875 8.59375 13.710938 8.09375 14.609375 C 7.40625 15.828125 6.457031 16.578125 5.25 16.859375 C 4.050781 17.140625 2.773438 16.894531 1.421875 16.125 L -6.546875 11.640625 L -5 8.875 L 2.640625 13.171875 C 3.367188 13.585938 4.054688 13.710938 4.703125 13.546875 C 5.347656 13.390625 5.867188 12.96875 6.265625 12.28125 C 6.660156 11.570312 6.753906 10.890625 6.546875 10.234375 C 6.347656 9.585938 5.867188 9.050781 5.109375 8.625 L -2.453125 4.359375 Z M -0.890625 1.59375 "/></g></g></g><g fill="#00bf63" fill-opacity="1"><g transform="translate(295.817981, 252.725996)"><g><path d="M -4.8125 6.109375 C -4.269531 5.378906 -3.671875 4.789062 -3.015625 4.34375 C -2.367188 3.894531 -1.703125 3.597656 -1.015625 3.453125 C -0.328125 3.316406 0.367188 3.328125 1.078125 3.484375 C 1.785156 3.648438 2.472656 3.976562 3.140625 4.46875 L 6.03125 6.59375 C 6.6875 7.082031 7.195312 7.640625 7.5625 8.265625 C 7.9375 8.898438 8.160156 9.566406 8.234375 10.265625 C 8.304688 10.972656 8.222656 11.703125 7.984375 12.453125 C 7.753906 13.210938 7.367188 13.957031 6.828125 14.6875 C 6.347656 15.34375 5.804688 15.882812 5.203125 16.3125 C 4.609375 16.738281 3.984375 17.03125 3.328125 17.1875 C 2.671875 17.351562 2 17.394531 1.3125 17.3125 C 0.625 17.238281 -0.0546875 17.023438 -0.734375 16.671875 L 1.140625 14.125 C 1.734375 14.414062 2.34375 14.460938 2.96875 14.265625 C 3.601562 14.078125 4.148438 13.671875 4.609375 13.046875 C 5.140625 12.328125 5.363281 11.625 5.28125 10.9375 C 5.207031 10.25 4.832031 9.65625 4.15625 9.15625 L 1.265625 7.03125 C 0.597656 6.539062 -0.0703125 6.351562 -0.75 6.46875 C -1.425781 6.59375 -2.035156 7.019531 -2.578125 7.75 C -3.023438 8.363281 -3.25 9.003906 -3.25 9.671875 C -3.25 10.335938 -3.023438 10.90625 -2.578125 11.375 L -4.453125 13.921875 C -5.003906 13.378906 -5.414062 12.789062 -5.6875 12.15625 C -5.96875 11.519531 -6.125 10.859375 -6.15625 10.171875 C -6.1875 9.492188 -6.085938 8.8125 -5.859375 8.125 C -5.640625 7.4375 -5.289062 6.765625 -4.8125 6.109375 Z M -4.8125 6.109375 "/></g></g></g><g fill="#00bf63" fill-opacity="1"><g transform="translate(287.397388, 264.245305)"><g><path d="M -5.421875 5.359375 C -4.796875 4.691406 -4.125 4.171875 -3.40625 3.796875 C -2.695312 3.429688 -1.988281 3.222656 -1.28125 3.171875 C -0.582031 3.117188 0.109375 3.21875 0.796875 3.46875 C 1.484375 3.726562 2.128906 4.144531 2.734375 4.71875 L 5.296875 7.15625 C 5.898438 7.71875 6.347656 8.332031 6.640625 9 C 6.929688 9.675781 7.066406 10.367188 7.046875 11.078125 C 7.035156 11.785156 6.863281 12.5 6.53125 13.21875 C 6.195312 13.945312 5.71875 14.644531 5.09375 15.3125 C 4.46875 15.976562 3.800781 16.488281 3.09375 16.84375 C 2.394531 17.195312 1.691406 17.40625 0.984375 17.46875 C 0.273438 17.53125 -0.421875 17.429688 -1.109375 17.171875 C -1.796875 16.910156 -2.441406 16.492188 -3.046875 15.921875 L -4.890625 14.1875 L 1.265625 7.6875 L 0.59375 7.046875 C -0.0703125 6.410156 -0.773438 6.097656 -1.515625 6.109375 C -2.253906 6.117188 -2.9375 6.457031 -3.5625 7.125 C -4.039062 7.625 -4.367188 8.125 -4.546875 8.625 C -4.722656 9.125 -4.726562 9.585938 -4.5625 10.015625 L -6.703125 12.28125 C -7.035156 11.769531 -7.25 11.222656 -7.34375 10.640625 C -7.4375 10.054688 -7.425781 9.460938 -7.3125 8.859375 C -7.195312 8.253906 -6.976562 7.65625 -6.65625 7.0625 C -6.34375 6.46875 -5.929688 5.898438 -5.421875 5.359375 Z M -1.1875 13.359375 L -0.890625 13.640625 C -0.210938 14.273438 0.484375 14.585938 1.203125 14.578125 C 1.921875 14.578125 2.601562 14.238281 3.25 13.5625 C 3.875 12.894531 4.175781 12.195312 4.15625 11.46875 C 4.132812 10.738281 3.789062 10.066406 3.125 9.453125 L 2.8125 9.140625 Z M -1.1875 13.359375 "/></g></g></g><g fill="#00bf63" fill-opacity="1"><g transform="translate(277.631607, 274.648726)"><g><path d="M -5.609375 4.3125 C -4.347656 3.269531 -3.128906 2.691406 -1.953125 2.578125 C -0.785156 2.472656 0.25 2.847656 1.15625 3.703125 L -1.359375 5.765625 C -1.722656 5.492188 -2.144531 5.394531 -2.625 5.46875 C -3.101562 5.550781 -3.582031 5.789062 -4.0625 6.1875 L -4.84375 6.84375 C -5.46875 7.351562 -5.847656 7.863281 -5.984375 8.375 C -6.117188 8.894531 -6.015625 9.363281 -5.671875 9.78125 C -5.078125 10.5 -4.15625 10.476562 -2.90625 9.71875 L -1.234375 8.625 C 0.128906 7.78125 1.316406 7.375 2.328125 7.40625 C 3.335938 7.445312 4.25 7.957031 5.0625 8.9375 C 5.90625 9.957031 6.195312 11.03125 5.9375 12.15625 C 5.675781 13.289062 4.878906 14.410156 3.546875 15.515625 L 2.75 16.171875 C 1.5625 17.148438 0.398438 17.6875 -0.734375 17.78125 C -1.878906 17.882812 -2.882812 17.539062 -3.75 16.75 L -1.25 14.671875 C -0.945312 14.910156 -0.570312 15 -0.125 14.9375 C 0.3125 14.875 0.753906 14.65625 1.203125 14.28125 L 2 13.625 C 3.144531 12.675781 3.382812 11.800781 2.71875 11 C 2.144531 10.300781 1.328125 10.289062 0.265625 10.96875 L -1.484375 12.078125 C -2.898438 12.972656 -4.140625 13.398438 -5.203125 13.359375 C -6.265625 13.328125 -7.203125 12.820312 -8.015625 11.84375 C -8.878906 10.789062 -9.175781 9.671875 -8.90625 8.484375 C -8.632812 7.296875 -7.796875 6.125 -6.390625 4.96875 Z M -5.609375 4.3125 "/></g></g></g><g fill="#00bf63" fill-opacity="1"><g transform="translate(266.667223, 283.780135)"><g/></g></g><g fill="#00bf63" fill-opacity="1"><g transform="translate(254.668675, 291.502535)"><g/></g></g><g fill="#00bf63" fill-opacity="1"><g transform="translate(241.816031, 297.700074)"><g><path d="M -4.1875 3.765625 C -3.945312 4.484375 -3.96875 5.125 -4.25 5.6875 C -4.53125 6.25 -5.023438 6.648438 -5.734375 6.890625 C -6.453125 7.128906 -7.09375 7.101562 -7.65625 6.8125 C -8.21875 6.53125 -8.617188 6.03125 -8.859375 5.3125 C -9.085938 4.601562 -9.066406 3.960938 -8.796875 3.390625 C -8.523438 2.828125 -8.03125 2.425781 -7.3125 2.1875 C -6.601562 1.945312 -5.960938 1.972656 -5.390625 2.265625 C -4.816406 2.554688 -4.414062 3.054688 -4.1875 3.765625 Z M -4.1875 3.765625 "/></g></g></g></svg>